<svg xmlns="http://www.w3.org/2000/svg" viewBox="0 0 128 128" role="img" aria-label="PokerNow Odds Calculator icon">
  <defs>
    <linearGradient id="felt" x1="20" y1="12" x2="108" y2="116" gradientUnits="userSpaceOnUse">
      <stop offset="0" stop-color="#16a34a"/>
      <stop offset="1" stop-color="#052e1b"/>
    </linearGradient>
    <linearGradient id="chip" x1="16" y1="10" x2="112" y2="118" gradientUnits="userSpaceOnUse">
      <stop offset="0" stop-color="#f85149"/>
      <stop offset="1" stop-color="#7f1d1d"/>
    </linearGradient>
  </defs>
  <rect width="128" height="128" rx="28" fill="#0d1117"/>
  <circle cx="64" cy="64" r="48" fill="url(#chip)"/>
  <g fill="#f0f6fc">
    <rect x="59" y="14" width="10" height="20" rx="3"/>
    <rect x="59" y="94" width="10" height="20" rx="3"/>
    <rect x="94" y="59" width="20" height="10" rx="3"/>
    <rect x="14" y="59" width="20" height="10" rx="3"/>
    <rect x="86" y="27" width="10" height="18" rx="3" transform="rotate(45 91 36)"/>
    <rect x="32" y="83" width="10" height="18" rx="3" transform="rotate(45 37 92)"/>
    <rect x="86" y="83" width="10" height="18" rx="3" transform="rotate(135 91 92)"/>
    <rect x="32" y="27" width="10" height="18" rx="3" transform="rotate(135 37 36)"/>
  </g>
  <circle cx="64" cy="64" r="34" fill="url(#felt)" stroke="#f0f6fc" stroke-width="4"/>
  <path fill="#f0f6fc" d="M64 32c-8 14-23 21-23 35 0 9 7 16 16 16 4 0 8-2 10-5-1 8-5 13-10 18h30c-5-5-9-10-10-18 2 3 6 5 10 5 9 0 16-7 16-16 0-14-15-21-23-35-4-7-8-12-16-18z"/>
  <g fill="#0d1117">
    <rect x="50" y="61" width="7" height="19" rx="2"/>
    <rect x="61" y="53" width="7" height="27" rx="2"/>
    <rect x="72" y="45" width="7" height="35" rx="2"/>
  </g>
</svg>
